<mxfile host="app.diagrams.net" modified="2020-11-24T05:50:50.351Z" agent="5.0 (Windows NT 10.0; Win64; x64) AppleWebKit/537.36 (KHTML, like Gecko) Chrome/86.0.4240.198 Safari/537.36" etag="yAGIvpWvyRl5CIaLCk_K" version="13.10.1" type="github">
  <diagram name="Page-1" id="9361dd3d-8414-5efd-6122-117bd74ce7a7">
    <mxGraphModel dx="2062" dy="1162" grid="1" gridSize="10" guides="1" tooltips="1" connect="1" arrows="1" fold="1" page="0" pageScale="1.5" pageWidth="826" pageHeight="1169" background="#ffffff" math="0" shadow="0">
      <root>
        <mxCell id="0" />
        <mxCell id="1" parent="0" />
        <mxCell id="F1dSW7futVmq_LC8AEYH-91" value="product1" style="shape=umlLifeline;perimeter=lifelinePerimeter;whiteSpace=wrap;html=1;container=1;collapsible=0;recursiveResize=0;outlineConnect=0;" vertex="1" parent="1">
          <mxGeometry x="190" y="20" width="100" height="580" as="geometry" />
        </mxCell>
        <mxCell id="F1dSW7futVmq_LC8AEYH-108" value="" style="shape=umlLifeline;participant=umlActor;perimeter=lifelinePerimeter;whiteSpace=wrap;html=1;container=1;collapsible=0;recursiveResize=0;verticalAlign=top;spacingTop=36;outlineConnect=0;" vertex="1" parent="F1dSW7futVmq_LC8AEYH-91">
          <mxGeometry x="-120" y="-60" width="20" height="480" as="geometry" />
        </mxCell>
        <mxCell id="F1dSW7futVmq_LC8AEYH-119" value="" style="html=1;points=[];perimeter=orthogonalPerimeter;fillColor=#ffffff;" vertex="1" parent="F1dSW7futVmq_LC8AEYH-91">
          <mxGeometry x="45" y="240" width="10" height="35" as="geometry" />
        </mxCell>
        <mxCell id="F1dSW7futVmq_LC8AEYH-94" value="invoice" style="shape=umlLifeline;perimeter=lifelinePerimeter;whiteSpace=wrap;html=1;container=1;collapsible=0;recursiveResize=0;outlineConnect=0;" vertex="1" parent="1">
          <mxGeometry x="470" y="140" width="100" height="460" as="geometry" />
        </mxCell>
        <mxCell id="F1dSW7futVmq_LC8AEYH-110" value="" style="shape=umlLifeline;participant=umlActor;perimeter=lifelinePerimeter;whiteSpace=wrap;html=1;container=1;collapsible=0;recursiveResize=0;verticalAlign=top;spacingTop=36;outlineConnect=0;" vertex="1" parent="F1dSW7futVmq_LC8AEYH-94">
          <mxGeometry x="-400" y="-180" width="20" height="480" as="geometry" />
        </mxCell>
        <mxCell id="F1dSW7futVmq_LC8AEYH-114" value="" style="html=1;points=[];perimeter=orthogonalPerimeter;" vertex="1" parent="F1dSW7futVmq_LC8AEYH-94">
          <mxGeometry x="45" y="80" width="10" height="80" as="geometry" />
        </mxCell>
        <mxCell id="F1dSW7futVmq_LC8AEYH-123" value="" style="html=1;points=[];perimeter=orthogonalPerimeter;" vertex="1" parent="F1dSW7futVmq_LC8AEYH-94">
          <mxGeometry x="45" y="200" width="10" height="80" as="geometry" />
        </mxCell>
        <mxCell id="F1dSW7futVmq_LC8AEYH-96" value="" style="html=1;points=[];perimeter=orthogonalPerimeter;" vertex="1" parent="F1dSW7futVmq_LC8AEYH-94">
          <mxGeometry x="45" y="330" width="10" height="80" as="geometry" />
        </mxCell>
        <mxCell id="F1dSW7futVmq_LC8AEYH-95" value="product2" style="shape=umlLifeline;perimeter=lifelinePerimeter;whiteSpace=wrap;html=1;container=1;collapsible=0;recursiveResize=0;outlineConnect=0;" vertex="1" parent="1">
          <mxGeometry x="330" y="80" width="100" height="520" as="geometry" />
        </mxCell>
        <mxCell id="F1dSW7futVmq_LC8AEYH-109" value="" style="shape=umlLifeline;participant=umlActor;perimeter=lifelinePerimeter;whiteSpace=wrap;html=1;container=1;collapsible=0;recursiveResize=0;verticalAlign=top;spacingTop=36;outlineConnect=0;" vertex="1" parent="F1dSW7futVmq_LC8AEYH-95">
          <mxGeometry x="-260" y="-120" width="20" height="480" as="geometry" />
        </mxCell>
        <mxCell id="F1dSW7futVmq_LC8AEYH-122" value="" style="html=1;points=[];perimeter=orthogonalPerimeter;fillColor=#ffffff;" vertex="1" parent="F1dSW7futVmq_LC8AEYH-95">
          <mxGeometry x="45" y="300" width="10" height="35" as="geometry" />
        </mxCell>
        <mxCell id="F1dSW7futVmq_LC8AEYH-99" value="" style="shape=umlLifeline;participant=umlActor;perimeter=lifelinePerimeter;whiteSpace=wrap;html=1;container=1;collapsible=0;recursiveResize=0;verticalAlign=top;spacingTop=36;outlineConnect=0;" vertex="1" parent="1">
          <mxGeometry x="70" y="-40" width="20" height="640" as="geometry" />
        </mxCell>
        <mxCell id="F1dSW7futVmq_LC8AEYH-113" value="인스턴스화" style="html=1;verticalAlign=bottom;endArrow=block;entryX=0;entryY=0.032;entryDx=0;entryDy=0;entryPerimeter=0;" edge="1" parent="1" source="F1dSW7futVmq_LC8AEYH-99" target="F1dSW7futVmq_LC8AEYH-91">
          <mxGeometry width="80" relative="1" as="geometry">
            <mxPoint x="870" y="50" as="sourcePoint" />
            <mxPoint x="950" y="50" as="targetPoint" />
          </mxGeometry>
        </mxCell>
        <mxCell id="F1dSW7futVmq_LC8AEYH-117" value="인스턴스화" style="html=1;verticalAlign=bottom;endArrow=block;entryX=0;entryY=0.036;entryDx=0;entryDy=0;entryPerimeter=0;" edge="1" parent="1" source="F1dSW7futVmq_LC8AEYH-99" target="F1dSW7futVmq_LC8AEYH-95">
          <mxGeometry width="80" relative="1" as="geometry">
            <mxPoint x="200" y="99.99999999999991" as="sourcePoint" />
            <mxPoint x="310.5" y="99.99999999999991" as="targetPoint" />
          </mxGeometry>
        </mxCell>
        <mxCell id="F1dSW7futVmq_LC8AEYH-118" value="인스턴스화" style="html=1;verticalAlign=bottom;endArrow=block;entryX=0;entryY=0.04;entryDx=0;entryDy=0;entryPerimeter=0;" edge="1" parent="1" source="F1dSW7futVmq_LC8AEYH-99" target="F1dSW7futVmq_LC8AEYH-94">
          <mxGeometry width="80" relative="1" as="geometry">
            <mxPoint x="90" y="160.00000000000009" as="sourcePoint" />
            <mxPoint x="340.5" y="160.00000000000009" as="targetPoint" />
          </mxGeometry>
        </mxCell>
        <mxCell id="F1dSW7futVmq_LC8AEYH-115" value="add(...)" style="html=1;verticalAlign=bottom;endArrow=block;entryX=0;entryY=0;" edge="1" parent="1" target="F1dSW7futVmq_LC8AEYH-114" source="F1dSW7futVmq_LC8AEYH-99">
          <mxGeometry relative="1" as="geometry">
            <mxPoint x="440" y="220" as="sourcePoint" />
          </mxGeometry>
        </mxCell>
        <mxCell id="F1dSW7futVmq_LC8AEYH-120" value="getPrice(...)" style="html=1;verticalAlign=bottom;endArrow=block;entryX=1;entryY=0;" edge="1" parent="1" target="F1dSW7futVmq_LC8AEYH-119" source="F1dSW7futVmq_LC8AEYH-114">
          <mxGeometry relative="1" as="geometry">
            <mxPoint x="380" y="253" as="sourcePoint" />
          </mxGeometry>
        </mxCell>
        <mxCell id="F1dSW7futVmq_LC8AEYH-121" value="" style="html=1;verticalAlign=bottom;endArrow=open;dashed=1;endSize=8;exitX=1;exitY=0.95;" edge="1" parent="1" source="F1dSW7futVmq_LC8AEYH-119" target="F1dSW7futVmq_LC8AEYH-114">
          <mxGeometry relative="1" as="geometry">
            <mxPoint x="305" y="317" as="targetPoint" />
          </mxGeometry>
        </mxCell>
        <mxCell id="F1dSW7futVmq_LC8AEYH-124" value="add(...)" style="html=1;verticalAlign=bottom;endArrow=block;entryX=0;entryY=0;" edge="1" parent="1" target="F1dSW7futVmq_LC8AEYH-123" source="F1dSW7futVmq_LC8AEYH-99">
          <mxGeometry relative="1" as="geometry">
            <mxPoint x="100" y="340" as="sourcePoint" />
          </mxGeometry>
        </mxCell>
        <mxCell id="F1dSW7futVmq_LC8AEYH-125" value="getPrice(...)" style="html=1;verticalAlign=bottom;endArrow=block;entryX=1;entryY=0;" edge="1" parent="1" source="F1dSW7futVmq_LC8AEYH-123" target="F1dSW7futVmq_LC8AEYH-122">
          <mxGeometry relative="1" as="geometry">
            <mxPoint x="380" y="373" as="sourcePoint" />
          </mxGeometry>
        </mxCell>
        <mxCell id="F1dSW7futVmq_LC8AEYH-126" value="" style="html=1;verticalAlign=bottom;endArrow=open;dashed=1;endSize=8;exitX=1;exitY=0.95;" edge="1" parent="1" source="F1dSW7futVmq_LC8AEYH-122" target="F1dSW7futVmq_LC8AEYH-123">
          <mxGeometry relative="1" as="geometry">
            <mxPoint x="305" y="437" as="targetPoint" />
          </mxGeometry>
        </mxCell>
        <mxCell id="F1dSW7futVmq_LC8AEYH-97" value="print(...)" style="html=1;verticalAlign=bottom;endArrow=block;entryX=0;entryY=0;" edge="1" target="F1dSW7futVmq_LC8AEYH-96" parent="1" source="F1dSW7futVmq_LC8AEYH-99">
          <mxGeometry relative="1" as="geometry">
            <mxPoint x="445" y="470" as="sourcePoint" />
          </mxGeometry>
        </mxCell>
        <mxCell id="F1dSW7futVmq_LC8AEYH-98" value="" style="html=1;verticalAlign=bottom;endArrow=open;dashed=1;endSize=8;exitX=0;exitY=0.95;" edge="1" source="F1dSW7futVmq_LC8AEYH-96" parent="1" target="F1dSW7futVmq_LC8AEYH-99">
          <mxGeometry relative="1" as="geometry">
            <mxPoint x="445" y="546" as="targetPoint" />
          </mxGeometry>
        </mxCell>
      </root>
    </mxGraphModel>
  </diagram>
</mxfile>
